<?xml version="1.0" encoding="UTF-8"?>
<!DOCTYPE svg PUBLIC "-//W3C//DTD SVG 1.1//EN" "http://www.w3.org/Graphics/SVG/1.1/DTD/svg11.dtd">
<svg xmlns="http://www.w3.org/2000/svg" version="1.1" width="512px" height="512px" style="shape-rendering:geometricPrecision; text-rendering:geometricPrecision; image-rendering:optimizeQuality; fill-rule:evenodd; clip-rule:evenodd" xmlns:xlink="http://www.w3.org/1999/xlink">
<g><path style="opacity:0.995" fill="#dbba2e" d="M 478.5,229.5 C 448.029,201.199 417.363,173.033 386.5,145C 374.171,144.5 361.838,144.333 349.5,144.5C 338.167,144.5 326.833,144.5 315.5,144.5C 315.5,175.833 315.5,207.167 315.5,238.5C 326.833,238.5 338.167,238.5 349.5,238.5C 364.504,238.333 379.504,238.5 394.5,239C 396.939,239.774 398.773,241.274 400,243.5C 400.667,251.167 400.667,258.833 400,266.5C 399.167,269.333 397.333,271.167 394.5,272C 301.5,272.667 208.5,272.667 115.5,272C 113.274,270.773 111.774,268.939 111,266.5C 110.333,258.833 110.333,251.167 111,243.5C 112.167,241.667 113.667,240.167 115.5,239C 130.83,238.5 146.163,238.333 161.5,238.5C 172.833,238.5 184.167,238.5 195.5,238.5C 195.5,207.167 195.5,175.833 195.5,144.5C 184.167,144.5 172.833,144.5 161.5,144.5C 149.162,144.333 136.829,144.5 124.5,145C 93.6372,173.033 62.9706,201.199 32.5,229.5C 26.6167,231.152 21.7833,229.486 18,224.5C 14.2838,220.452 10.9504,216.118 8,211.5C 7.24501,208.697 7.57834,206.03 9,203.5C 41.5,173.667 74,143.833 106.5,114C 110.521,111.66 114.854,110.326 119.5,110C 210.167,109.333 300.833,109.333 391.5,110C 396.146,110.326 400.479,111.66 404.5,114C 437,143.833 469.5,173.667 502,203.5C 503.422,206.03 503.755,208.697 503,211.5C 500.05,216.118 496.716,220.452 493,224.5C 489.217,229.486 484.383,231.152 478.5,229.5 Z"/></g>
<g><path style="opacity:0.999" fill="#e8ce30" d="M 161.5,144.5 C 161.5,175.833 161.5,207.167 161.5,238.5C 146.163,238.333 130.83,238.5 115.5,239C 113.667,240.167 112.167,241.667 111,243.5C 110.333,251.167 110.333,258.833 111,266.5C 111.774,268.939 113.274,270.773 115.5,272C 208.5,272.667 301.5,272.667 394.5,272C 397.333,271.167 399.167,269.333 400,266.5C 400.667,258.833 400.667,251.167 400,243.5C 398.773,241.274 396.939,239.774 394.5,239C 379.504,238.5 364.504,238.333 349.5,238.5C 349.5,207.167 349.5,175.833 349.5,144.5C 361.838,144.333 374.171,144.5 386.5,145C 417.363,173.033 448.029,201.199 478.5,229.5C 451.269,284.295 423.769,338.962 396,393.5C 392.587,397.956 388.087,400.456 382.5,401C 297.833,401.667 213.167,401.667 128.5,401C 122.913,400.456 118.413,397.956 115,393.5C 87.231,338.962 59.731,284.295 32.5,229.5C 62.9706,201.199 93.6372,173.033 124.5,145C 136.829,144.5 149.162,144.333 161.5,144.5 Z"/></g>
<g><path style="opacity:1" fill="#cca32f" d="M 161.5,144.5 C 172.833,144.5 184.167,144.5 195.5,144.5C 195.5,175.833 195.5,207.167 195.5,238.5C 184.167,238.5 172.833,238.5 161.5,238.5C 161.5,207.167 161.5,175.833 161.5,144.5 Z"/></g>
<g><path style="opacity:1" fill="#e8cd31" d="M 196.5,144.5 C 235.833,144.5 275.167,144.5 314.5,144.5C 314.5,175.833 314.5,207.167 314.5,238.5C 275.167,238.5 235.833,238.5 196.5,238.5C 196.5,207.167 196.5,175.833 196.5,144.5 Z"/></g>
<g><path style="opacity:1" fill="#cca32f" d="M 349.5,144.5 C 349.5,175.833 349.5,207.167 349.5,238.5C 338.167,238.5 326.833,238.5 315.5,238.5C 315.5,207.167 315.5,175.833 315.5,144.5C 326.833,144.5 338.167,144.5 349.5,144.5 Z"/></g>
</svg>
